<svg id="visual" viewBox="0 0 900 600" width="900" height="600" xmlns="http://www.w3.org/2000/svg" xmlns:xlink="http://www.w3.org/1999/xlink" version="1.1"><rect x="0" y="0" width="900" height="600" fill="#002233"></rect><path d="M0 514L21.5 501.5C43 489 86 464 128.8 458.5C171.7 453 214.3 467 257.2 478.5C300 490 343 499 385.8 503.3C428.7 507.7 471.3 507.3 514.2 494.2C557 481 600 455 642.8 457.7C685.7 460.3 728.3 491.7 771.2 488.5C814 485.3 857 447.7 878.5 428.8L900 410L900 601L878.5 601C857 601 814 601 771.2 601C728.3 601 685.7 601 642.8 601C600 601 557 601 514.2 601C471.3 601 428.7 601 385.8 601C343 601 300 601 257.2 601C214.3 601 171.7 601 128.8 601C86 601 43 601 21.5 601L0 601Z" fill="#0066FF" stroke-linecap="round" stroke-linejoin="miter"></path></svg>